<mxfile host="app.diagrams.net" modified="2022-01-12T08:41:31.603Z" agent="5.0 (Macintosh; Intel Mac OS X 10_15_7) AppleWebKit/537.36 (KHTML, like Gecko) Chrome/93.0.4577.82 Safari/537.36" etag="ST2q3jGTjR8hpzmhe1Ue" version="16.2.4" type="github">
  <diagram id="PZ0BivcXl0NTdbIH8Is_" name="Page-1">
    <mxGraphModel dx="1097" dy="548" grid="1" gridSize="10" guides="1" tooltips="1" connect="1" arrows="1" fold="1" page="1" pageScale="1" pageWidth="1100" pageHeight="850" background="#FFFFFF" math="0" shadow="0">
      <root>
        <mxCell id="0" />
        <mxCell id="1" parent="0" />
        <mxCell id="KrTvEiq1TBW0IUXl3S9p-28" value="" style="group" vertex="1" connectable="0" parent="1">
          <mxGeometry x="30" y="210" width="990" height="580" as="geometry" />
        </mxCell>
        <mxCell id="KrTvEiq1TBW0IUXl3S9p-6" value="GigaSpace-xap-opsÂ account" style="swimlane;shadow=0;" vertex="1" parent="KrTvEiq1TBW0IUXl3S9p-28">
          <mxGeometry x="275.69620253164555" width="714.3037974683544" height="580" as="geometry" />
        </mxCell>
        <mxCell id="KrTvEiq1TBW0IUXl3S9p-4" value="Amazon EKS" style="sketch=0;outlineConnect=0;fontColor=#232F3E;gradientColor=none;strokeColor=#ffffff;fillColor=#232F3E;dashed=0;verticalLabelPosition=middle;verticalAlign=bottom;align=center;html=1;whiteSpace=wrap;fontSize=10;fontStyle=1;spacing=3;shape=mxgraph.aws4.productIcon;prIcon=mxgraph.aws4.eks;" vertex="1" parent="KrTvEiq1TBW0IUXl3S9p-6">
          <mxGeometry x="313.2911392405063" y="92.27272727272727" width="100.25316455696202" height="131.8181818181818" as="geometry" />
        </mxCell>
        <mxCell id="KrTvEiq1TBW0IUXl3S9p-14" value="" style="sketch=0;aspect=fixed;html=1;points=[];align=center;image;fontSize=12;image=img/lib/mscae/CloudSimple_Nodes.svg;" vertex="1" parent="KrTvEiq1TBW0IUXl3S9p-6">
          <mxGeometry x="332.7151898734177" y="250.45454545454544" width="61.40506329113924" height="62.65822784810127" as="geometry" />
        </mxCell>
        <mxCell id="KrTvEiq1TBW0IUXl3S9p-16" value="" style="aspect=fixed;html=1;points=[];align=center;image;fontSize=12;image=img/lib/azure2/networking/DNS_Zones.svg;" vertex="1" parent="KrTvEiq1TBW0IUXl3S9p-6">
          <mxGeometry x="179.20253164556962" y="109.4090909090909" width="80.20253164556962" height="80.20253164556962" as="geometry" />
        </mxCell>
        <mxCell id="KrTvEiq1TBW0IUXl3S9p-17" value="" style="sketch=0;html=1;dashed=0;whitespace=wrap;fillColor=#2875E2;strokeColor=#ffffff;points=[[0.005,0.63,0],[0.1,0.2,0],[0.9,0.2,0],[0.5,0,0],[0.995,0.63,0],[0.72,0.99,0],[0.5,1,0],[0.28,0.99,0]];shape=mxgraph.kubernetes.icon;prIcon=secret" vertex="1" parent="KrTvEiq1TBW0IUXl3S9p-6">
          <mxGeometry x="476.20253164556965" y="126.54545454545453" width="62.65822784810127" height="63.272727272727266" as="geometry" />
        </mxCell>
        <mxCell id="KrTvEiq1TBW0IUXl3S9p-19" value="" style="ellipse;shape=cloud;whiteSpace=wrap;html=1;gradientColor=none;fillColor=none;shadow=1;" vertex="1" parent="KrTvEiq1TBW0IUXl3S9p-6">
          <mxGeometry x="12.531645569620252" y="13.181818181818182" width="701.7721518987341" height="395.45454545454544" as="geometry" />
        </mxCell>
        <mxCell id="KrTvEiq1TBW0IUXl3S9p-5" value="" style="sketch=0;outlineConnect=0;fontColor=#232F3E;gradientColor=none;strokeColor=#232F3E;fillColor=#ffffff;dashed=0;verticalLabelPosition=bottom;verticalAlign=top;align=center;html=1;fontSize=12;fontStyle=0;aspect=fixed;shape=mxgraph.aws4.resourceIcon;resIcon=mxgraph.aws4.virtual_private_cloud;" vertex="1" parent="KrTvEiq1TBW0IUXl3S9p-6">
          <mxGeometry x="12.531645569620252" y="39.54545454545455" width="75.18987341772151" height="75.18987341772151" as="geometry" />
        </mxCell>
        <mxCell id="KrTvEiq1TBW0IUXl3S9p-20" value="" style="endArrow=none;html=1;rounded=0;exitX=0.25;exitY=0.25;exitDx=0;exitDy=0;exitPerimeter=0;entryX=0.07;entryY=0.4;entryDx=0;entryDy=0;entryPerimeter=0;" edge="1" parent="KrTvEiq1TBW0IUXl3S9p-6" source="KrTvEiq1TBW0IUXl3S9p-19" target="KrTvEiq1TBW0IUXl3S9p-19">
          <mxGeometry width="50" height="50" relative="1" as="geometry">
            <mxPoint x="-75.18987341772151" y="210.9090909090909" as="sourcePoint" />
            <mxPoint x="-12.531645569620252" y="145" as="targetPoint" />
            <Array as="points">
              <mxPoint x="50.12658227848101" y="105.45454545454545" />
            </Array>
          </mxGeometry>
        </mxCell>
        <mxCell id="KrTvEiq1TBW0IUXl3S9p-15" value="worker nodes&lt;br&gt;" style="text;html=1;align=center;verticalAlign=middle;resizable=0;points=[];autosize=1;strokeColor=none;fillColor=none;" vertex="1" parent="KrTvEiq1TBW0IUXl3S9p-6">
          <mxGeometry x="307.0253164556962" y="316.3636363636364" width="90" height="20" as="geometry" />
        </mxCell>
        <mxCell id="KrTvEiq1TBW0IUXl3S9p-22" value="external secret&lt;br&gt;" style="text;html=1;align=center;verticalAlign=middle;resizable=0;points=[];autosize=1;strokeColor=none;fillColor=none;" vertex="1" parent="KrTvEiq1TBW0IUXl3S9p-6">
          <mxGeometry x="162.91139240506328" y="197.72727272727272" width="90" height="20" as="geometry" />
        </mxCell>
        <mxCell id="KrTvEiq1TBW0IUXl3S9p-23" value="external DNS&lt;br&gt;" style="text;html=1;align=center;verticalAlign=middle;resizable=0;points=[];autosize=1;strokeColor=none;fillColor=none;" vertex="1" parent="KrTvEiq1TBW0IUXl3S9p-6">
          <mxGeometry x="451.13924050632914" y="197.72727272727272" width="90" height="20" as="geometry" />
        </mxCell>
        <mxCell id="KrTvEiq1TBW0IUXl3S9p-24" value="" style="sketch=0;points=[[0,0,0],[0.25,0,0],[0.5,0,0],[0.75,0,0],[1,0,0],[0,1,0],[0.25,1,0],[0.5,1,0],[0.75,1,0],[1,1,0],[0,0.25,0],[0,0.5,0],[0,0.75,0],[1,0.25,0],[1,0.5,0],[1,0.75,0]];outlineConnect=0;fontColor=#232F3E;gradientColor=#60A337;gradientDirection=north;fillColor=#277116;strokeColor=#ffffff;dashed=0;verticalLabelPosition=bottom;verticalAlign=top;align=center;html=1;fontSize=12;fontStyle=0;aspect=fixed;shape=mxgraph.aws4.resourceIcon;resIcon=mxgraph.aws4.s3;shadow=0;" vertex="1" parent="KrTvEiq1TBW0IUXl3S9p-6">
          <mxGeometry x="205.51898734177215" y="448.1818181818182" width="47.620253164556964" height="47.620253164556964" as="geometry" />
        </mxCell>
        <mxCell id="KrTvEiq1TBW0IUXl3S9p-26" value="&lt;h1&gt;&lt;div style=&quot;text-align: justify&quot;&gt;&lt;span style=&quot;font-size: 12px ; text-align: center&quot;&gt;s3-&lt;/span&gt;&lt;span style=&quot;font-size: 12px ; font-weight: normal&quot;&gt;xap-sultan-test&lt;/span&gt;&lt;/div&gt;&lt;span style=&quot;text-align: center&quot;&gt;&lt;div style=&quot;font-size: 12px ; text-align: justify&quot;&gt;&lt;span&gt;- charts&lt;/span&gt;&lt;/div&gt;&lt;div style=&quot;font-size: 12px ; text-align: justify&quot;&gt;&lt;span&gt;- newman-db dump&lt;/span&gt;&lt;/div&gt;&lt;div style=&quot;text-align: justify&quot;&gt;&lt;span style=&quot;font-size: 12px&quot;&gt;s3-&amp;nbsp;&lt;/span&gt;&lt;a class=&quot;bucket-name&quot; href=&quot;https://s3.console.aws.amazon.com/s3/buckets/gigaspaces-infra-tfstate-573366771204?region=eu-central-1&quot; style=&quot;font-family: &amp;#34;amazon ember&amp;#34; , &amp;#34;helvetica neue&amp;#34; , &amp;#34;roboto&amp;#34; , &amp;#34;arial&amp;#34; , sans-serif ; font-weight: 400&quot;&gt;&lt;font style=&quot;font-size: 12px&quot; color=&quot;#000000&quot;&gt;gigaspaces-infra-tfstate&lt;/font&gt;&lt;/a&gt;&lt;/div&gt;&lt;/span&gt;&lt;/h1&gt;" style="text;html=1;strokeColor=none;fillColor=none;spacing=5;spacingTop=-20;whiteSpace=wrap;overflow=hidden;rounded=0;shadow=0;" vertex="1" parent="KrTvEiq1TBW0IUXl3S9p-6">
          <mxGeometry x="45.11392405063291" y="421.8181818181818" width="200.50632911392404" height="131.8181818181818" as="geometry" />
        </mxCell>
        <mxCell id="KrTvEiq1TBW0IUXl3S9p-27" value="" style="shape=cylinder3;whiteSpace=wrap;html=1;boundedLbl=1;backgroundOutline=1;size=15;shadow=0;fontSize=12;fontColor=#000000;fillColor=none;gradientColor=none;" vertex="1" parent="KrTvEiq1TBW0IUXl3S9p-6">
          <mxGeometry x="33.835443037974684" y="395.45454545454544" width="225.56962025316457" height="171.36363636363635" as="geometry" />
        </mxCell>
        <mxCell id="KrTvEiq1TBW0IUXl3S9p-8" value="" style="shape=image;html=1;verticalAlign=top;verticalLabelPosition=bottom;labelBackgroundColor=#ffffff;imageAspect=0;aspect=fixed;image=https://cdn2.iconfinder.com/data/icons/font-awesome/1792/file-code-o-128.png" vertex="1" parent="KrTvEiq1TBW0IUXl3S9p-28">
          <mxGeometry y="100.18181818181817" width="130.32911392405063" height="130.32911392405063" as="geometry" />
        </mxCell>
        <mxCell id="KrTvEiq1TBW0IUXl3S9p-10" value="" style="endArrow=none;html=1;rounded=0;entryX=0;entryY=0.25;entryDx=0;entryDy=0;exitX=0;exitY=0.75;exitDx=0;exitDy=0;" edge="1" parent="KrTvEiq1TBW0IUXl3S9p-28" source="KrTvEiq1TBW0IUXl3S9p-6" target="KrTvEiq1TBW0IUXl3S9p-6">
          <mxGeometry width="50" height="50" relative="1" as="geometry">
            <mxPoint x="288.2278481012658" y="369.09090909090907" as="sourcePoint" />
            <mxPoint x="250.63291139240508" y="184.54545454545453" as="targetPoint" />
            <Array as="points">
              <mxPoint x="100.25316455696202" y="184.54545454545453" />
            </Array>
          </mxGeometry>
        </mxCell>
        <mxCell id="KrTvEiq1TBW0IUXl3S9p-11" value="" style="shape=image;verticalLabelPosition=bottom;labelBackgroundColor=default;verticalAlign=top;aspect=fixed;imageAspect=0;image=https://s.dou.ua/CACHE/images/img/announces/og-image-8b3e4f7d/8044baf16ab50f3584c67fbb3c52b09a.jpg;" vertex="1" parent="KrTvEiq1TBW0IUXl3S9p-28">
          <mxGeometry x="25.063291139240505" y="118.63636363636363" width="45.74050632911393" height="25.063291139240505" as="geometry" />
        </mxCell>
        <mxCell id="KrTvEiq1TBW0IUXl3S9p-13" value="&lt;a href=&quot;data:page/id,PZ0BivcXl0NTdbIH8Is_&quot;&gt;&lt;b&gt;Terraform&lt;/b&gt;&lt;br&gt;https://github.com/Gigaspaces/Infrastructure&lt;/a&gt;" style="text;html=1;align=left;verticalAlign=middle;resizable=0;points=[];autosize=1;strokeColor=none;fillColor=none;" vertex="1" parent="KrTvEiq1TBW0IUXl3S9p-28">
          <mxGeometry x="-19.493670886075947" y="245.45454545454544" width="250" height="30" as="geometry" />
        </mxCell>
        <mxCell id="KrTvEiq1TBW0IUXl3S9p-34" value="" style="shape=image;verticalLabelPosition=bottom;labelBackgroundColor=default;verticalAlign=top;aspect=fixed;imageAspect=0;image=https://www.ukisraelhub.com/wp-content/uploads/2020/05/logo16.jpg;" vertex="1" parent="1">
          <mxGeometry x="20" y="28" width="195" height="130" as="geometry" />
        </mxCell>
      </root>
    </mxGraphModel>
  </diagram>
</mxfile>
